<svg width="2107" height="365" viewBox="0 0 2107 365" fill="none" xmlns="http://www.w3.org/2000/svg">
<path fill-rule="evenodd" clip-rule="evenodd" d="M792.669 142.003C810.761 134.867 822.536 121.734 830.419 109.597C836.971 99.5099 845.314 101.465 845.314 113.494V174.824C845.314 175.743 845.226 176.642 845.057 177.512C845.227 178.841 845.314 180.195 845.314 181.57V310.837C845.314 328.321 831.141 342.494 813.657 342.494C796.173 342.494 782 328.321 782 310.837V181.57C782 180.195 782.088 178.841 782.258 177.512C782.089 176.642 782 175.743 782 174.824V156.457C782 149.926 786.594 144.399 792.669 142.003Z" fill="#072A6D"/>
<circle cx="812.998" cy="51.6441" r="30.9976" fill="#072A6D"/>
<path d="M1053.06 97.1511C1017.19 15.0702 941.471 -11.0156 873.068 33.5175C865.971 38.1379 855.867 33.3807 855.867 24.9123C855.867 21.0944 858.062 17.5873 861.546 16.0248C943.006 -20.5126 1018.26 4.97733 1053.06 97.1511Z" fill="#072A6D"/>
<rect x="925.776" y="152.551" width="63.3143" height="189.943" rx="31.6571" fill="#072A6D"/>
<path d="M865.987 178.046C863.995 177.027 862.724 174.959 862.724 172.721L862.724 129.975C862.724 125.7 867.084 122.802 871.054 124.385C939.849 151.805 980.665 154.091 1044.03 125.101C1048.06 123.258 1052.72 126.155 1052.72 130.585L1052.72 172.7C1052.72 174.949 1051.44 177.027 1049.43 178.04C977.26 214.485 935.252 213.483 865.987 178.046Z" fill="#072A6D"/>
<path d="M1260.95 262.372H1201.17V224.667H1260.95C1270.19 224.667 1277.71 223.163 1283.51 220.155C1289.31 217.04 1293.55 212.743 1296.24 207.265C1298.92 201.786 1300.27 195.609 1300.27 188.734C1300.27 181.752 1298.92 175.253 1296.24 169.237C1293.55 163.222 1289.31 158.388 1283.51 154.735C1277.71 151.083 1270.19 149.257 1260.95 149.257H1217.93V346H1169.59V111.391H1260.95C1279.32 111.391 1295.06 114.721 1308.16 121.381C1321.38 127.934 1331.47 137.011 1338.46 148.612C1345.44 160.214 1348.93 173.48 1348.93 188.412C1348.93 203.559 1345.44 216.664 1338.46 227.729C1331.47 238.793 1321.38 247.333 1308.16 253.349C1295.06 259.364 1279.32 262.372 1260.95 262.372ZM1488.88 151.513L1425.07 346H1373.67L1460.84 111.391H1493.55L1488.88 151.513ZM1541.89 346L1477.92 151.513L1472.76 111.391H1505.8L1593.45 346H1541.89ZM1538.99 258.666V296.532H1415.08V258.666H1538.99ZM1653.15 111.391H1740.65C1758.59 111.391 1774 114.076 1786.89 119.447C1799.89 124.818 1809.88 132.768 1816.87 143.295C1823.85 153.822 1827.34 166.767 1827.34 182.128C1827.34 194.696 1825.19 205.492 1820.89 214.516C1816.7 223.432 1810.74 230.897 1803.01 236.913C1795.38 242.821 1786.41 247.548 1776.1 251.093L1760.79 259.149H1684.74L1684.41 221.444H1740.97C1749.46 221.444 1756.49 219.94 1762.08 216.933C1767.67 213.925 1771.86 209.735 1774.65 204.364C1777.55 198.993 1779 192.763 1779 185.673C1779 178.153 1777.6 171.654 1774.81 166.176C1772.02 160.697 1767.77 156.508 1762.08 153.607C1756.39 150.707 1749.24 149.257 1740.65 149.257H1701.49V346H1653.15V111.391ZM1784.32 346L1730.82 241.425L1781.9 241.103L1836.04 343.744V346H1784.32ZM1950.85 111.391V346H1902.51V111.391H1950.85ZM2091.36 111.391L1998.38 227.245L1944.73 284.931L1936.03 239.169L1972.28 189.54L2032.06 111.391H2091.36ZM2036.41 346L1967.29 237.558L2003.06 207.587L2093.61 346H2036.41Z" fill="#072A6D"/>
<path d="M160.538 154.058C132.655 149.345 131.869 108.109 160.538 103.789L341.19 103.396C415.807 108.502 462.149 177.621 462.149 218.464L464.112 244.776C491.603 357.095 615.31 312.325 615.31 244.776C615.31 177.228 616.096 123.425 616.096 123.425C624.343 97.5057 656.546 97.5057 665.579 123.425V252.238C648.692 360.629 514.381 408.149 436.622 312.325C411.095 344.528 387.531 357.488 343.547 363.771H240.261C262.482 347.77 272.128 337.144 279.533 312.325H343.154C430.338 302.114 439.763 170.552 343.154 154.058H160.538Z" fill="#072A6D"/>
<path d="M515.951 237.308C520.664 261.657 556.402 271.082 565.827 237.308V123.418C565.041 118.706 564.256 115.171 559.936 111.637C552.082 135.985 536.765 145.018 515.951 152.087V237.308Z" fill="#072A6D"/>
<path d="M461.756 123.029C456.258 102.607 431.124 96.3241 415.808 116.352C437.269 133.563 448.315 144.243 461.756 169.763V123.029Z" fill="#072A6D"/>
<path d="M134.617 103C119.982 124.234 121.426 135.183 134.617 153.661H74.1383C45.4698 157.981 46.648 205.108 74.1383 207.857H197.453C294.456 218.46 291.707 358.269 197.453 361.804H20.7283C-10.6894 355.128 -1.65683 315.855 20.7283 312.321H197.453C225.336 306.823 225.729 265.98 197.453 258.911H71.3893C-18.1512 251.842 -29.1474 111.247 71.3893 103H134.617Z" fill="#072A6D"/>
<path fill-rule="evenodd" clip-rule="evenodd" d="M382.164 261.308C379.805 263.384 377.213 265.203 374.433 266.719C366.874 260.393 360.386 254.623 354.521 249.041C356.951 246.494 359.34 244.051 361.723 241.681C367.878 248.15 374.557 254.591 382.164 261.308ZM385.851 257.64C377.808 250.914 370.937 244.739 364.729 238.726C366.68 236.832 368.637 234.979 370.618 233.152C376.486 239.367 382.839 245.555 390.072 252.024C388.82 254.013 387.407 255.891 385.851 257.64ZM362.31 236.359C364.379 234.546 366.469 232.759 368.592 230.985C366.417 228.634 364.304 226.274 362.232 223.888C360.108 225.843 358.013 227.827 355.923 229.858C357.989 232.023 360.11 234.184 362.31 236.359ZM353.596 227.395C355.807 225.457 358.039 223.55 360.312 221.656C357.963 218.9 355.66 216.103 353.37 213.241C351.03 215.296 348.736 217.374 346.452 219.511C348.797 222.176 351.164 224.794 353.596 227.395ZM344.215 221.626C346.433 224.378 348.669 227.076 350.95 229.739C348.215 232.185 345.505 234.688 342.785 237.278C340.456 234.818 338.188 232.342 335.94 229.819C338.746 226.945 341.482 224.235 344.215 221.626ZM343.768 216.429C346.131 214.34 348.527 212.29 350.996 210.244C346.245 204.188 341.504 197.812 336.486 190.888C333.201 192.395 330.141 194.309 327.373 196.567C333.142 203.757 338.439 210.251 343.768 216.429ZM326.072 197.671C331.427 205.063 336.496 211.877 341.609 218.357C338.727 220.956 335.874 223.631 332.975 226.449C327.985 220.713 323.007 214.664 317.597 207.937C319.871 204.082 322.738 200.618 326.072 197.671ZM353.292 232.444C355.239 234.665 357.223 236.868 359.261 239.062C356.681 241.376 354.122 243.741 351.555 246.183C349.521 244.198 347.558 242.23 345.644 240.26C348.227 237.549 350.763 234.955 353.292 232.444ZM351.635 252.09C357.005 257.677 362.8 263.268 369.306 269.086C364.6 270.886 359.491 271.873 354.152 271.873C348.036 271.873 342.223 270.578 336.971 268.249C342.202 262.339 347.015 257.015 351.635 252.09ZM348.668 248.958C346.788 246.943 344.955 244.923 343.158 242.888C337.907 248.48 332.41 254.585 326.336 261.478C328.171 263.074 330.144 264.514 332.235 265.779C337.956 259.654 343.352 254.121 348.668 248.958ZM340.327 239.639C338.152 237.106 336.018 234.54 333.901 231.924C328.726 237.305 323.272 243.276 317.152 250.21C318.69 252.946 320.522 255.494 322.606 257.811C328.804 251.145 334.609 245.181 340.327 239.639ZM331.039 228.343C326.348 222.404 321.683 216.164 316.768 209.407C313.559 215.378 311.738 222.206 311.738 229.459C311.738 235.024 312.81 240.339 314.759 245.208C320.649 238.875 325.941 233.371 331.039 228.343ZM392.574 247.447C385.431 241.39 379.259 235.823 373.64 230.4C379.798 224.869 386.27 219.504 393.603 213.853C395.515 218.683 396.566 223.948 396.566 229.459C396.566 235.89 395.135 241.986 392.574 247.447ZM371.648 228.46C378.22 223.089 385.17 217.784 392.898 212.179C391.426 208.882 389.545 205.808 387.32 203.021C378.927 209.4 371.677 215.363 364.814 221.539C367.021 223.845 369.288 226.143 371.648 228.46ZM362.899 219.521C370.06 213.665 377.667 207.889 386.238 201.719C383.648 198.726 380.646 196.098 377.319 193.925C369.073 200.161 362.064 205.728 355.499 211.388C357.933 214.149 360.383 216.846 362.899 219.521ZM353.036 208.568C359.423 203.363 366.36 198.12 374.523 192.248C368.477 188.931 361.535 187.045 354.152 187.045C348.39 187.045 342.897 188.194 337.888 190.275C343.228 196.922 348.136 202.904 353.036 208.568Z" fill="#072A6D"/>
</svg>
