<svg width="1325" height="346" viewBox="0 0 1325 346" fill="none" xmlns="http://www.w3.org/2000/svg">
<path fill-rule="evenodd" clip-rule="evenodd" d="M10.6685 142.003C28.7612 134.867 40.5358 121.734 48.4194 109.597C54.9714 99.5099 63.3143 101.465 63.3143 113.494V174.824C63.3143 175.743 63.2257 176.642 63.0566 177.512C63.2266 178.841 63.3143 180.195 63.3143 181.57V310.837C63.3143 328.321 49.1409 342.494 31.6571 342.494C14.1734 342.494 0 328.321 0 310.837V181.57C0 180.195 0.0876688 178.841 0.257722 177.512C0.0885985 176.642 0 175.743 0 174.824V156.457C0 149.926 4.59387 144.399 10.6685 142.003Z" fill="#072A6D"/>
<circle cx="30.9976" cy="51.6441" r="30.9976" fill="#072A6D"/>
<path d="M271.064 97.1511C235.192 15.0702 159.471 -11.0156 91.0684 33.5175C83.9714 38.1379 73.8667 33.3807 73.8667 24.9123C73.8667 21.0944 76.0621 17.5873 79.5456 16.0248C161.006 -20.5126 236.257 4.97733 271.064 97.1511Z" fill="#072A6D"/>
<rect x="143.776" y="152.551" width="63.3143" height="189.943" rx="31.6571" fill="#072A6D"/>
<path d="M83.9869 178.046C81.9951 177.027 80.7241 174.959 80.7241 172.721L80.7241 129.975C80.7241 125.7 85.0835 122.802 89.0545 124.385C157.849 151.805 198.665 154.091 262.033 125.101C266.062 123.258 270.724 126.155 270.724 130.585L270.724 172.7C270.724 174.949 269.438 177.027 267.431 178.04C195.26 214.485 153.252 213.483 83.9869 178.046Z" fill="#072A6D"/>
<path d="M478.951 262.372H419.171V224.667H478.951C488.189 224.667 495.709 223.163 501.51 220.155C507.31 217.04 511.554 212.743 514.239 207.265C516.925 201.786 518.267 195.609 518.267 188.734C518.267 181.752 516.925 175.253 514.239 169.237C511.554 163.222 507.31 158.388 501.51 154.735C495.709 151.083 488.189 149.257 478.951 149.257H435.929V346H387.589V111.391H478.951C497.32 111.391 513.057 114.721 526.163 121.381C539.376 127.934 549.473 137.011 556.456 148.612C563.438 160.214 566.93 173.48 566.93 188.412C566.93 203.559 563.438 216.664 556.456 227.729C549.473 238.793 539.376 247.333 526.163 253.349C513.057 259.364 497.32 262.372 478.951 262.372ZM706.877 151.513L643.068 346H591.667L678.839 111.391H711.549L706.877 151.513ZM759.889 346L695.92 151.513L690.763 111.391H723.796L811.452 346H759.889ZM756.989 258.666V296.532H633.078V258.666H756.989ZM871.155 111.391H958.65C976.589 111.391 992.004 114.076 1004.89 119.447C1017.89 124.818 1027.88 132.768 1034.87 143.295C1041.85 153.822 1045.34 166.767 1045.34 182.128C1045.34 194.696 1043.19 205.492 1038.89 214.516C1034.7 223.432 1028.74 230.897 1021.01 236.913C1013.38 242.821 1004.41 247.548 994.099 251.093L978.791 259.149H902.737L902.414 221.444H958.972C967.458 221.444 974.495 219.94 980.08 216.933C985.666 213.925 989.856 209.735 992.649 204.364C995.549 198.993 996.999 192.763 996.999 185.673C996.999 178.153 995.603 171.654 992.81 166.176C990.017 160.697 985.774 156.508 980.08 153.607C974.387 150.707 967.244 149.257 958.65 149.257H919.495V346H871.155V111.391ZM1002.32 346L948.821 241.425L999.9 241.103L1054.04 343.744V346H1002.32ZM1168.85 111.391V346H1120.51V111.391H1168.85ZM1309.36 111.391L1216.38 227.245L1162.73 284.931L1154.03 239.169L1190.28 189.54L1250.06 111.391H1309.36ZM1254.41 346L1185.29 237.558L1221.06 207.587L1311.61 346H1254.41Z" fill="#072A6D"/>
</svg>
