<svg width="1226" height="455" viewBox="0 0 1226 455" fill="none" xmlns="http://www.w3.org/2000/svg">
<path fill-rule="evenodd" clip-rule="evenodd" d="M964.944 142.003C983.037 134.867 994.812 121.734 1002.7 109.597C1009.25 99.5099 1017.59 101.465 1017.59 113.494V174.824C1017.59 175.743 1017.5 176.642 1017.33 177.512C1017.5 178.841 1017.59 180.195 1017.59 181.57V310.837C1017.59 328.321 1003.42 342.494 985.933 342.494C968.449 342.494 954.276 328.321 954.276 310.837V181.57C954.276 180.195 954.364 178.841 954.534 177.512C954.364 176.642 954.276 175.743 954.276 174.824V156.457C954.276 149.926 958.87 144.399 964.944 142.003Z" fill="#072A6D"/>
<circle cx="985.273" cy="51.6441" r="30.9976" fill="#072A6D"/>
<path d="M1225.34 97.1511C1189.47 15.0702 1113.75 -11.0156 1045.34 33.5175C1038.25 38.1379 1028.14 33.3807 1028.14 24.9123C1028.14 21.0944 1030.34 17.5873 1033.82 16.0248C1115.28 -20.5126 1190.53 4.97733 1225.34 97.1511Z" fill="#072A6D"/>
<rect x="1098.05" y="152.551" width="63.3143" height="189.943" rx="31.6571" fill="#072A6D"/>
<path d="M1038.26 178.046C1036.27 177.027 1035 174.959 1035 172.721L1035 129.975C1035 125.7 1039.36 122.802 1043.33 124.385C1112.12 151.805 1152.94 154.091 1216.31 125.101C1220.34 123.258 1225 126.155 1225 130.585L1225 172.7C1225 174.949 1223.71 177.027 1221.71 178.04C1149.54 214.485 1107.53 213.483 1038.26 178.046Z" fill="#072A6D"/>
<path d="M981.009 411.462H965.973V401.979H981.009C983.332 401.979 985.224 401.601 986.683 400.844C988.142 400.061 989.209 398.98 989.884 397.602C990.56 396.224 990.897 394.671 990.897 392.941C990.897 391.185 990.56 389.551 989.884 388.038C989.209 386.525 988.142 385.309 986.683 384.39C985.224 383.472 983.332 383.012 981.009 383.012H970.188V432.496H958.03V373.488H981.009C985.629 373.488 989.587 374.326 992.883 376.001C996.206 377.649 998.746 379.932 1000.5 382.85C1002.26 385.768 1003.14 389.105 1003.14 392.86C1003.14 396.67 1002.26 399.966 1000.5 402.749C998.746 405.532 996.206 407.68 992.883 409.193C989.587 410.706 985.629 411.462 981.009 411.462ZM1049.13 383.58L1033.08 432.496H1020.15L1042.07 373.488H1050.3L1049.13 383.58ZM1062.46 432.496L1046.37 383.58L1045.07 373.488H1053.38L1075.43 432.496H1062.46ZM1061.73 410.53V420.054H1030.56V410.53H1061.73ZM1101.23 373.488H1123.24C1127.75 373.488 1131.63 374.164 1134.87 375.515C1138.14 376.866 1140.65 378.865 1142.41 381.513C1144.17 384.16 1145.04 387.416 1145.04 391.28C1145.04 394.441 1144.5 397.156 1143.42 399.426C1142.37 401.668 1140.87 403.546 1138.92 405.059C1137.01 406.545 1134.75 407.734 1132.16 408.625L1128.31 410.652H1109.18L1109.1 401.168H1123.32C1125.46 401.168 1127.23 400.79 1128.63 400.034C1130.04 399.277 1131.09 398.223 1131.79 396.873C1132.52 395.522 1132.89 393.955 1132.89 392.171C1132.89 390.28 1132.53 388.646 1131.83 387.268C1131.13 385.89 1130.06 384.836 1128.63 384.106C1127.2 383.377 1125.4 383.012 1123.24 383.012H1113.39V432.496H1101.23V373.488ZM1134.22 432.496L1120.77 406.194L1133.62 406.113L1147.23 431.929V432.496H1134.22ZM1186.9 373.488V432.496H1174.74V373.488H1186.9ZM1222.24 373.488L1198.85 402.627L1185.36 417.136L1183.17 405.626L1192.29 393.144L1207.32 373.488H1222.24ZM1208.42 432.496L1191.03 405.221L1200.03 397.683L1222.81 432.496H1208.42Z" fill="#072A6D"/>
<path d="M204.5 168C169 162 168 109.5 204.5 104L434.5 103.5C529.5 110 588.5 198 588.5 250L591 283.5C626 426.5 783.5 369.5 783.5 283.5C783.5 197.5 784.5 129 784.5 129C795 96 836 96 847.5 129V293C826 431 655 491.5 556 369.5C523.5 410.5 493.5 427 437.5 435H306C334.292 414.628 346.573 401.1 356 369.5H437C548 356.5 560 189 437 168H204.5Z" fill="#072A6D"/>
<path d="M657 274C663 305 708.5 317 720.5 274V129C719.5 123 718.5 118.5 713 114C703 145 683.5 156.5 657 165.5V274Z" fill="#072A6D"/>
<path d="M588 128.499C581 102.5 549 94.5 529.5 119.999C556.824 141.911 570.887 155.509 588 187.999V128.499Z" fill="#072A6D"/>
<path d="M171.5 103C152.867 130.035 154.704 143.974 171.5 167.5H94.4997C58 173 59.5 233 94.4997 236.5H251.5C375 250 371.5 428 251.5 432.5H26.4999C-13.5 424 -2 374 26.4999 369.5H251.5C287 362.5 287.5 310.5 251.5 301.5H90.9997C-23.0001 292.5 -37.0001 113.5 90.9997 103H171.5Z" fill="#072A6D"/>
<path fill-rule="evenodd" clip-rule="evenodd" d="M486.659 304.552C483.657 307.194 480.359 309.508 476.822 311.438C467.199 303.384 458.94 296.04 451.473 288.933C454.566 285.693 457.606 282.583 460.638 279.567C468.474 287.803 476.976 296.003 486.659 304.552ZM491.354 299.883C481.115 291.321 472.368 283.46 464.465 275.806C466.951 273.393 469.443 271.032 471.967 268.704C479.437 276.617 487.525 284.494 496.732 292.729C495.137 295.263 493.336 297.656 491.354 299.883ZM461.385 272.792C464.022 270.482 466.683 268.206 469.388 265.946C466.617 262.952 463.926 259.946 461.288 256.908C458.583 259.398 455.914 261.925 453.252 264.513C455.883 267.269 458.584 270.021 461.385 272.792ZM450.289 261.376C453.105 258.908 455.949 256.478 458.843 254.066C455.853 250.557 452.92 246.995 450.004 243.351C447.024 245.968 444.102 248.615 441.193 251.338C444.178 254.731 447.193 258.064 450.289 261.376ZM438.345 254.03C441.168 257.534 444.015 260.969 446.92 264.36C443.44 267.474 439.99 270.659 436.529 273.955C433.564 270.822 430.676 267.67 427.814 264.457C431.384 260.8 434.867 257.35 438.345 254.03ZM437.775 247.414C440.785 244.752 443.837 242.141 446.982 239.535C440.933 231.826 434.897 223.708 428.508 214.893C424.324 216.812 420.428 219.25 416.902 222.125C424.248 231.281 430.992 239.547 437.775 247.414ZM415.246 223.531C422.063 232.943 428.518 241.617 435.027 249.868C431.359 253.176 427.728 256.581 424.038 260.166C417.685 252.863 411.348 245.162 404.459 236.598C407.354 231.691 411.003 227.283 415.246 223.531ZM449.903 267.804C452.381 270.634 454.908 273.438 457.504 276.233C454.221 279.177 450.964 282.187 447.697 285.295C445.107 282.767 442.607 280.26 440.169 277.751C443.457 274.302 446.684 271.001 449.903 267.804ZM447.799 292.815C454.635 299.928 462.012 307.044 470.294 314.451C464.303 316.744 457.798 318 451 318C443.215 318 435.815 316.353 429.129 313.387C435.789 305.863 441.916 299.086 447.799 292.815ZM444.022 288.827C441.627 286.262 439.293 283.689 437.004 281.098C430.318 288.217 423.32 295.989 415.586 304.767C417.923 306.799 420.436 308.633 423.1 310.243C430.384 302.445 437.253 295.402 444.022 288.827ZM433.4 276.96C430.63 273.735 427.913 270.469 425.217 267.137C418.629 273.989 411.685 281.591 403.893 290.419C405.851 293.903 408.184 297.147 410.838 300.098C418.729 291.611 426.119 284.017 433.4 276.96ZM421.574 262.578C415.601 255.016 409.662 247.072 403.405 238.469C399.318 246.071 397 254.765 397 264C397 271.085 398.365 277.852 400.845 284.051C408.346 275.988 415.083 268.98 421.574 262.578ZM499.917 286.902C490.824 279.191 482.968 272.104 475.815 265.201C483.654 258.16 491.894 251.33 501.229 244.136C503.663 250.285 505 256.986 505 264C505 272.187 503.178 279.949 499.917 286.902ZM473.279 262.732C481.646 255.894 490.494 249.14 500.332 242.004C498.457 237.806 496.062 233.891 493.229 230.341C482.544 238.463 473.313 246.055 464.575 253.917C467.386 256.854 470.274 259.781 473.279 262.732ZM462.137 251.348C471.254 243.892 480.938 236.538 491.851 228.684C488.553 224.872 484.73 221.526 480.495 218.759C469.997 226.699 461.073 233.786 452.715 240.992C455.814 244.508 458.933 247.942 462.137 251.348ZM449.579 237.401C457.711 230.775 466.541 224.099 476.934 216.624C469.237 212.401 460.399 210 451 210C443.664 210 436.67 211.463 430.293 214.112C437.091 222.575 443.341 230.191 449.579 237.401Z" fill="#072A6D"/>
</svg>
