<svg width="406" height="679" viewBox="0 0 406 679" fill="none" xmlns="http://www.w3.org/2000/svg">
<path fill-rule="evenodd" clip-rule="evenodd" d="M5.42481 215.727C54.7331 201.864 76.2858 159.216 87.131 136.896C89.7593 131.487 94.6042 132.904 94.6042 138.918V271.304V275.144V464.446C94.6042 490.569 73.4273 511.746 47.3042 511.746C21.1811 511.746 0.00418091 490.569 0.00418091 464.446V275.144V271.304V222.687C0.00418091 219.422 2.2816 216.61 5.42481 215.727Z" fill="white"/>
<circle cx="46.3188" cy="77.1779" r="46.3146" fill="white"/>
<path d="M405.01 145.172C351.412 22.5325 238.275 -16.4431 136.072 50.0952C125.469 56.9987 110.371 49.8908 110.371 37.2379C110.371 31.5335 113.651 26.2933 118.856 23.9588C240.569 -30.633 353.004 7.45242 405.01 145.172Z" fill="white"/>
<path fill-rule="evenodd" clip-rule="evenodd" d="M120.225 254.649C120.225 256.989 121.621 259.134 123.75 260.105C155.956 274.8 184.156 285.11 210.833 290.968C213.154 291.478 214.825 293.521 214.825 295.897V464.446C214.825 490.569 236.002 511.746 262.125 511.746C288.248 511.746 309.425 490.569 309.425 464.446V295.846C309.425 293.471 311.095 291.428 313.416 290.918C339.972 285.08 368.207 274.831 400.498 260.106C402.627 259.135 404.025 256.989 404.025 254.649V178.93C404.025 174.416 399.21 171.522 395.182 173.558C296.932 223.202 235.382 219.347 128.722 172.756C124.736 171.015 120.225 173.908 120.225 178.257L120.225 254.649Z" fill="white"/>
<path d="M43.1666 614.61H21.1852V599.416H43.1666C46.4098 599.416 49.0123 598.875 50.9743 597.794C52.9762 596.713 54.4376 595.231 55.3585 593.35C56.3195 591.428 56.7999 589.266 56.7999 586.863C56.7999 584.381 56.3195 582.079 55.3585 579.957C54.4376 577.794 52.9762 576.053 50.9743 574.731C49.0123 573.41 46.4098 572.75 43.1666 572.75H28.2721V645H8.69301V557.555H43.1666C50.1334 557.555 56.0993 558.816 61.0641 561.338C66.069 563.861 69.8927 567.324 72.5353 571.729C75.2179 576.093 76.5592 581.098 76.5592 586.743C76.5592 592.389 75.2179 597.293 72.5353 601.458C69.8927 605.622 66.069 608.865 61.0641 611.187C56.0993 613.469 50.1334 614.61 43.1666 614.61ZM144.591 574.191L122.009 645H101.109L133.48 557.555H146.693L144.591 574.191ZM163.329 645L140.687 574.191L138.345 557.555H151.738L184.23 645H163.329ZM162.369 612.448V627.583H116.784V612.448H162.369ZM221.632 557.555H255.205C261.891 557.555 267.677 558.556 272.562 560.558C277.486 562.56 281.27 565.522 283.913 569.446C286.555 573.37 287.877 578.215 287.877 583.98C287.877 588.785 287.096 592.869 285.534 596.232C283.973 599.596 281.771 602.378 278.928 604.581C276.125 606.783 272.842 608.564 269.078 609.926L262.712 613.409H234.124L234.004 598.214H255.265C258.188 598.214 260.61 597.694 262.532 596.653C264.454 595.612 265.895 594.15 266.856 592.269C267.857 590.347 268.358 588.104 268.358 585.542C268.358 582.899 267.857 580.617 266.856 578.695C265.855 576.773 264.374 575.312 262.412 574.311C260.49 573.27 258.088 572.75 255.205 572.75H241.211V645H221.632V557.555ZM270.039 645L250.4 606.142L271.06 606.082L291 644.099V645H270.039ZM350.864 557.555V645H331.285V557.555H350.864ZM403.115 557.555L368.881 601.277L348.942 622.898L345.398 604.701L358.551 585.842L379.091 557.555H403.115ZM380.412 645L356.269 605.061L371.163 593.47L403.595 645H380.412Z" fill="white"/>
</svg>
