<svg width="187" height="33" viewBox="0 0 187 33" fill="none" xmlns="http://www.w3.org/2000/svg">
<path fill-rule="evenodd" clip-rule="evenodd" d="M36.5299 12.8389C38.1356 12.1937 39.1806 11.0063 39.8803 9.909C40.4618 8.99702 41.2022 9.17378 41.2022 10.2613V15.8062C41.2022 15.8893 41.1944 15.9706 41.1794 16.0493C41.1945 16.1694 41.2022 16.2918 41.2022 16.4161V28.1033C41.2022 29.684 39.9443 30.9654 38.3926 30.9654C36.8409 30.9654 35.583 29.684 35.583 28.1033V16.4161C35.583 16.2918 35.5908 16.1694 35.6059 16.0493C35.5909 15.9706 35.583 15.8893 35.583 15.8062V14.1457C35.583 13.5552 35.9907 13.0555 36.5299 12.8389Z" fill="#072A6D"/>
<path d="M38.3341 7.47174C39.8535 7.47174 41.0852 6.21701 41.0852 4.66922C41.0852 3.12143 39.8535 1.8667 38.3341 1.8667C36.8147 1.8667 35.583 3.12143 35.583 4.66922C35.583 6.21701 36.8147 7.47174 38.3341 7.47174Z" fill="#072A6D"/>
<path d="M59.6401 8.78353C56.4565 1.36251 49.7363 -0.995929 43.6654 3.03035C43.0356 3.44809 42.1388 3.01798 42.1388 2.25235C42.1388 1.90717 42.3336 1.59009 42.6428 1.44882C49.8726 -1.85456 56.5515 0.450007 59.6401 8.78353Z" fill="#072A6D"/>
<path d="M51.153 13.792H51.153C49.6013 13.792 48.3434 15.0734 48.3434 16.6541V28.1028C48.3434 29.6835 49.6013 30.9649 51.153 30.9649C52.7047 30.9649 53.9626 29.6835 53.9626 28.1028V16.6541C53.9626 15.0734 52.7047 13.792 51.153 13.792Z" fill="#072A6D"/>
<path d="M43.037 16.0972C42.8602 16.0051 42.7474 15.8181 42.7474 15.6158V11.7511C42.7474 11.3646 43.1344 11.1026 43.4867 11.2457C49.5924 13.7248 53.2149 13.9314 58.8386 11.3104C59.1963 11.1438 59.6099 11.4057 59.6099 11.8062V15.6139C59.6099 15.8172 59.4963 16.0051 59.3179 16.0967C52.9127 19.3917 49.1844 19.3011 43.037 16.0972Z" fill="#072A6D"/>
<path d="M78.0907 23.7211H72.7851V20.3122H78.0907C78.9107 20.3122 79.5781 20.1762 80.0929 19.9043C80.6077 19.6226 80.984 19.2341 81.2227 18.7389C81.4606 18.2435 81.5804 17.685 81.5804 17.0635C81.5804 16.4322 81.4606 15.8446 81.2227 15.3007C80.984 14.7569 80.6077 14.3198 80.0929 13.9896C79.5781 13.6594 78.9107 13.4943 78.0907 13.4943H74.2726V31.282H69.9823V10.0708H78.0907C79.721 10.0708 81.118 10.3719 82.2806 10.974C83.4539 11.5665 84.3494 12.3871 84.9698 13.436C85.5893 14.4849 85.8991 15.6843 85.8991 17.0343C85.8991 18.4038 85.5893 19.5886 84.9698 20.589C84.3494 21.5893 83.4539 22.3614 82.2806 22.9054C81.118 23.4492 79.721 23.7211 78.0907 23.7211ZM98.3199 13.6983L92.6566 31.282H88.0948L95.8313 10.0708H98.7343L98.3199 13.6983ZM103.025 31.282L97.3471 13.6983L96.8892 10.0708H99.8215L107.601 31.282H103.025ZM102.767 23.3861V26.8096H91.77V23.3861H102.767ZM112.899 10.0708H120.665C122.257 10.0708 123.625 10.3136 124.769 10.7992C125.923 11.2847 126.809 12.0035 127.43 12.9553C128.049 13.907 128.359 15.0774 128.359 16.4662C128.359 17.6025 128.168 18.5786 127.786 19.3944C127.414 20.2005 126.886 20.8755 126.199 21.4194C125.522 21.9535 124.726 22.3809 123.811 22.7014L122.452 23.4297H115.703L115.673 20.0208H120.693C121.447 20.0208 122.071 19.8848 122.567 19.613C123.063 19.341 123.435 18.9622 123.682 18.4766C123.94 17.991 124.069 17.4277 124.069 16.7867C124.069 16.1068 123.944 15.5192 123.697 15.024C123.449 14.5286 123.072 14.1499 122.567 13.8876C122.062 13.6254 121.427 13.4943 120.665 13.4943H117.189V31.282H112.899V10.0708ZM124.541 31.282L119.792 21.8273L124.326 21.7982L129.131 31.0781V31.282H124.541ZM139.321 10.0708V31.282H135.03V10.0708H139.321ZM151.791 10.0708L143.539 20.5453L138.777 25.7607L138.005 21.6233L141.222 17.1363L146.528 10.0708H151.791ZM146.914 31.282L140.78 21.4777L143.954 18.768L151.991 31.282H146.914Z" fill="#072A6D"/>
</svg>
