<!DOCTYPE svg PUBLIC "-//W3C//DTD SVG 1.1//EN" "http://www.w3.org/Graphics/SVG/1.1/DTD/svg11.dtd">
<!-- Uploaded to: SVG Repo, www.svgrepo.com, Transformed by: SVG Repo Mixer Tools -->
<svg version="1.1" id="Layer_1" xmlns="http://www.w3.org/2000/svg" xmlns:xlink="http://www.w3.org/1999/xlink" viewBox="0 0 512 512" xml:space="preserve" width="800px" height="800px" fill="#000000">
<g id="SVGRepo_bgCarrier" stroke-width="0"/>
<g id="SVGRepo_tracerCarrier" stroke-linecap="round" stroke-linejoin="round"/>
<g id="SVGRepo_iconCarrier"> <rect x="64" style="fill:#EFEFEF;" width="384" height="512"/> <rect x="106.64" y="370.24" style="fill:#002833;" width="298.64" height="10.64"/> <g> <rect x="106.64" y="412.88" style="fill:#C9C9C9;" width="298.64" height="10.64"/> <rect x="106.64" y="434.24" style="fill:#C9C9C9;" width="298.64" height="10.64"/> <rect x="106.64" y="455.52" style="fill:#C9C9C9;" width="298.64" height="10.64"/> </g> <g> <path style="fill:#FF5F5F;" d="M392,338.24H120c-8.8,0-16-7.2-16-16V124.88c0-8.8,7.2-16,16-16h272c8.8,0,16,7.2,16,16v197.36 C408,331.04,400.8,338.24,392,338.24z"/> <rect x="104" y="44.88" style="fill:#FF5F5F;" width="53.36" height="32"/> </g> <rect x="189.36" y="44.88" style="fill:#C9C9C9;" width="218.64" height="32"/> <circle style="fill:#FFFFFF;" cx="326.64" cy="196.24" r="23.52"/> <g> <path style="fill:#002833;" d="M325.52,274.32l-22.72-49.2c0,0-23.84,0.32-23.84,22.24s0,26.96,0,26.96 S325.68,274.32,325.52,274.32z"/> <path style="fill:#002833;" d="M327.68,274.32l22.72-49.2c0,0,23.84,0.32,23.84,22.24s0,26.96,0,26.96S327.52,274.32,327.68,274.32 z"/> </g> <polygon style="fill:#8AD5DD;" points="326.64,225.12 310.24,225.12 326.64,261.36 342.96,225.12 "/> <circle style="fill:#FFFFFF;" cx="185.36" cy="196.24" r="23.52"/> <g> <path style="fill:#002833;" d="M184.32,274.32l-22.72-49.2c0,0-23.84,0.32-23.84,22.24s0,26.96,0,26.96 S184.48,274.32,184.32,274.32z"/> <path style="fill:#002833;" d="M186.48,274.32l22.72-49.2c0,0,23.84,0.32,23.84,22.24s0,26.96,0,26.96S186.32,274.32,186.48,274.32 z"/> </g> <polygon style="fill:#8AD5DD;" points="185.36,225.12 169.04,225.12 185.36,261.36 201.76,225.12 "/> </g>
</svg>