<svg width="366" height="273" viewBox="0 0 366 273" fill="none" xmlns="http://www.w3.org/2000/svg">
<path d="M365.84 115.17C361.34 124.19 352 130.38 341.23 130.38C326.03 130.38 313.71 118.06 313.71 102.85C313.71 100.16 314.09 97.56 314.82 95.11L242.56 46.7C237.85 51.5 231.36 54.54 224.16 54.78L205.02 219.23C215.62 222.94 223.21 233.03 223.21 244.9C223.21 259.93 211.02 272.11 196.01 272.11C181 272.11 168.8 259.92 168.8 244.9C168.8 236.36 172.74 228.73 178.91 223.76L128.35 148.52C124.78 150.28 120.76 151.27 116.51 151.27C108.87 151.27 101.98 148.08 97.1 142.96L47.18 176.52C49.27 180.37 50.44 184.76 50.44 189.44C50.44 204.46 38.27 216.64 23.24 216.64C20.34 216.64 17.56 216.18 14.95 215.34C8.72998 202.27 3.99998 188.35 0.97998 173.81C5.88998 166.79 14.03 162.22 23.24 162.22C30.48 162.22 37.07 165.04 41.93 169.67L92.23 135.86C90.58 132.39 89.67 128.51 89.67 124.41C89.67 109.58 101.69 97.56 116.52 97.56C131.35 97.56 143.37 109.58 143.37 124.41C143.37 131.89 140.31 138.66 135.37 143.52L186.39 219.44C189.39 218.31 192.63 217.69 196.02 217.69C196.19 217.69 196.36 217.69 196.53 217.7L215.64 53.72C204.31 50.44 196.02 39.99 196.02 27.6C196.02 12.57 208.19 0.400024 223.22 0.400024C238.25 0.400024 250.42 12.57 250.42 27.6C250.42 31.95 249.4 36.07 247.58 39.71L318.56 87.27C323.52 80.07 331.82 75.34 341.23 75.34C347.98 75.34 354.14 77.77 358.93 81.8C362.22 92.54 364.56 103.7 365.84 115.18V115.17Z" fill="#072A6D"/>
</svg>
